<svg width="450" height="450" viewBox="0 0 450 450" fill="none" xmlns="http://www.w3.org/2000/svg">
<g clip-path="url(#clip0_2293_17)">
<path d="M368.421 217.06L346.961 177.79L346.571 177.06H325.891L358.551 235.02V272.63H377.231V235.02L409.891 177.06H390.281L368.421 217.06Z" fill="white"/>
<path d="M343.451 72.1204L371.331 141.82L409.891 40.6504H390.341L371.141 93.6904L351.451 40.6504H336.411L316.321 93.6804L297.641 40.6504H276.621L315.181 141.79L343.451 72.1204Z" fill="white"/>
<path d="M225.641 272.63H244.651L253.131 250.62H290.471L298.951 272.63H317.961L281.171 177.95L280.841 177.06H262.761L226.371 270.75L225.641 272.63ZM271.801 202.32L283.721 233.27H259.901L271.801 202.32Z" fill="white"/>
<path d="M202.859 351.62H165.989V313.84H147.309V409.4H165.989V369.5H202.859V409.4H221.519V313.84H202.859V351.62Z" fill="white"/>
<path d="M380.64 353.96L379.67 353.59C367.08 348.88 361.52 346.52 361.52 339.87C361.52 334.41 367.14 330.12 374.32 330.12C385 330.12 392.36 339.93 392.43 340.03L393.38 341.31L406.37 328.48L405.66 327.52C405.2 326.89 394.14 312.25 374.32 312.25C354.46 312.25 342.58 326.29 342.58 339.87C342.58 357.84 358.59 365.73 372.53 370.61C383.43 374.41 388.57 376.96 388.57 383.76C388.57 390.66 380.6 393.11 373.78 393.11C360.72 393.11 353.04 380.03 352.97 379.89L352.15 378.45L338.07 390.34L338.64 391.33C338.75 391.52 350.05 410.99 373.78 410.99C390.57 410.99 407.51 402.57 407.51 383.77C407.53 365.53 394.24 359.05 380.64 353.96Z" fill="white"/>
<path d="M291.359 313.84H272.699V409.4H291.359V313.84Z" fill="white"/>
<path d="M207.13 137.8C234.68 137.8 255.45 116.58 255.45 88.4403C255.45 60.2903 234.68 39.0703 207.13 39.0703C179.59 39.0703 158.82 60.2903 158.82 88.4403C158.83 116.58 179.59 137.8 207.13 137.8ZM207.13 56.9403C224.15 56.9403 236.5 70.1903 236.5 88.4403C236.5 106.68 224.15 119.93 207.13 119.93C190.11 119.93 177.76 106.68 177.76 88.4403C177.76 70.1803 190.11 56.9403 207.13 56.9403Z" fill="white"/>
<path d="M59.9708 239.22H74.2308C92.8508 239.22 106.371 226.15 106.371 208.14C106.371 190.13 92.8608 177.06 74.2308 177.06H41.3008V272.62H59.9708V239.22ZM59.9708 194.94H72.2408C81.8908 194.94 87.4308 199.75 87.4308 208.14C87.4308 216.53 81.8908 221.34 72.2408 221.34H59.9708V194.94Z" fill="white"/>
<path d="M199.951 254.75H160.451V177.06H141.781V272.63H199.951V254.75Z" fill="white"/>
<path d="M66.5605 409.4H85.2305V331.72H110.82V313.84H40.9805V331.72H66.5605V409.4Z" fill="white"/>
<path d="M59.9691 75.3104L103.859 135.64L104.279 136.21H120.679V40.6504H102.009V101.68L58.1091 41.2204L57.6891 40.6504H41.2891V136.21H59.9691V75.3104Z" fill="white"/>
</g>
<defs>
<clipPath id="clip0_2293_17">
<rect width="370" height="372" fill="white" transform="translate(40 39)"/>
</clipPath>
</defs>
</svg>
